<svg width="100" height="100" viewBox="0 0 100 100" fill="none" xmlns="http://www.w3.org/2000/svg">
<path d="M49.8754 69.9504C44.3892 69.9504 39.9004 74.4392 39.9004 79.9254C39.9004 85.4116 44.3892 89.9004 49.8754 89.9004C55.3616 89.9004 59.8503 85.4116 59.8503 79.9254C59.8503 74.4392 55.3616 69.9504 49.8754 69.9504ZM49.8754 84.913C47.1321 84.913 44.8877 82.6687 44.8877 79.9254C44.8877 77.1822 47.1321 74.9378 49.8754 74.9378C52.6186 74.9378 54.863 77.1822 54.863 79.9254C54.863 82.6687 52.6186 84.913 49.8754 84.913Z" fill="black"/>
<path d="M50.1247 50.2495C42.1445 50.2495 34.6632 53.242 28.9277 58.9777C28.4289 59.4766 28.1796 59.9751 28.1796 60.7233C28.1796 61.4714 28.4289 61.9703 28.9277 62.4688L35.9102 69.4513C36.409 69.9501 36.9076 70.1994 37.6557 70.1994C38.1546 70.1994 38.9027 69.7005 39.4013 69.4513C42.1445 66.4587 45.8852 64.9625 49.8751 64.9625C53.865 64.9625 57.6057 66.4587 60.8478 69.4513C61.8452 70.4487 63.3414 70.4487 64.3391 69.4513L71.3216 62.4688C71.8204 61.97 72.0697 61.4714 72.0697 60.7233C72.0697 59.9751 71.8204 59.4763 71.3216 58.9777C65.5861 53.242 58.1048 50.2495 50.1247 50.2495ZM62.0947 64.2147C58.6034 61.4714 54.3642 59.9751 49.8754 59.9751C45.3866 59.9751 41.1471 61.4714 37.656 64.2147L34.1646 60.7233C38.6534 56.9826 44.1396 54.9875 49.8754 54.9875C55.6111 54.9875 61.0973 56.9826 65.5861 60.7233L62.0947 64.2147Z" fill="black"/>
<path d="M49.8754 30.0499C36.6583 30.0499 24.1897 35.2869 14.7133 44.7633C13.7159 45.7607 13.7159 47.2569 14.7133 48.2546L21.6957 55.2371C22.1946 55.7359 22.6931 55.9852 23.4413 55.9852C24.1894 55.9852 24.6882 55.7359 25.1868 55.2371C31.92 48.7532 40.6483 45.0125 49.8751 45.0125C59.1019 45.0125 68.0795 48.7532 74.5634 55.2371C75.0623 55.7359 75.5608 55.9852 76.3089 55.9852C77.0571 55.9852 77.5559 55.7359 78.0545 55.2371L85.0369 48.2546C86.0343 47.2572 86.0343 45.761 85.0369 44.7633C75.8107 35.2869 63.0925 30.0499 49.8754 30.0499ZM76.3092 50.0002C69.0772 43.5163 59.6011 40.0252 49.8754 40.0252C40.1497 40.0252 30.9229 43.5166 23.4416 50.0002L19.9502 46.5088C28.1796 39.0275 38.6534 35.0376 49.8754 35.0376C61.0973 35.0376 71.5712 39.0275 79.8006 46.5088L76.3092 50.0002Z" fill="black"/>
<path d="M99.252 30.5488C86.0349 17.3317 68.5786 10.1 49.8754 10.1C31.1721 10.1 13.7158 17.332 0.748057 30.7984C-0.249352 31.7958 -0.249352 33.292 0.748057 34.2897L7.73051 41.2722C8.72792 42.2696 10.2242 42.2696 11.2219 41.2722C21.4464 30.7984 35.1621 25.0626 49.8754 25.0626C64.5887 25.0626 78.3043 30.7984 88.7782 41.0226C89.277 41.5215 89.7756 41.7708 90.5237 41.7708C91.0225 41.7708 91.7707 41.5215 92.2692 41.2719L99.2517 34.0399C100.249 33.0425 100.249 31.5462 99.252 30.5488ZM90.2744 35.7857C79.3017 25.5612 65.0873 20.075 49.8754 20.075C34.6635 20.075 20.449 25.5612 9.22706 35.7857L5.73569 32.2943C17.9551 21.3217 33.4165 15.0873 49.8754 15.0873C66.3342 15.0873 81.7957 21.3217 93.7658 32.2943L90.2744 35.7857Z" fill="black"/>
</svg>
