<svg width="100" height="100" viewBox="0 0 100 100" fill="none" xmlns="http://www.w3.org/2000/svg">
<path d="M50 98C30.8611 98 15 82.2558 15 62.3837C15 49.9648 20.7531 37.4066 27.2584 27.108C33.8076 16.7401 41.3597 8.28954 45.4369 4.02074C48.0106 1.32641 51.9894 1.32641 54.5631 4.02079C58.6403 8.28954 66.1926 16.7401 72.7416 27.108C79.2468 37.4066 85 49.9648 85 62.3837C85 82.2558 69.1389 98 50 98Z" stroke="black" stroke-width="4"/>
<path d="M50 80.0084C52.4514 80.0084 54.8785 79.4763 57.1433 78.4431C59.4082 77.4099 61.4659 75.8955 63.1993 73.9858C64.9327 72.0766 66.3077 69.8097 67.2458 67.315C68.1838 64.8203 68.6667 62.1468 68.6667 59.4465" stroke="black" stroke-width="4" stroke-linecap="round"/>
</svg>
