<svg width="100" height="100" viewBox="0 0 100 100" fill="none" xmlns="http://www.w3.org/2000/svg">
<g clip-path="url(#clip0_1_59)">
<path fill-rule="evenodd" clip-rule="evenodd" d="M7.32235 92.6775C14.6446 100 26.4298 100 50 100C73.57 100 85.3555 100 92.6775 92.6775C100 85.3555 100 73.57 100 50C100 26.4298 100 14.6446 92.6775 7.32235C85.3555 -5.96046e-07 73.57 0 50 0C26.4298 0 14.6446 -5.96046e-07 7.32235 7.32235C-5.96046e-07 14.6446 0 26.4298 0 50C0 73.57 -5.96046e-07 85.3555 7.32235 92.6775ZM74.674 30.9799L57.1135 76.809C55.5225 80.961 49.7 81.096 48.4585 77.0095L43.176 59.6245C42.765 58.2725 41.7275 57.235 40.3755 56.824L22.9905 51.5415C18.904 50.3 19.0389 44.4775 23.1912 42.8865L69.02 25.326C72.6945 23.918 76.082 27.3054 74.674 30.9799Z" fill="black" stroke="black" stroke-width="0.008"/>
</g>
<defs>
<clipPath id="clip0_1_59">
<rect width="100" height="100" fill="white"/>
</clipPath>
</defs>
</svg>
