<svg width="100" height="100" viewBox="0 0 100 100" fill="none" xmlns="http://www.w3.org/2000/svg">
<path d="M43.2203 60.5568V59.5909C43.2393 56.2765 43.5328 53.6345 44.101 51.6648C44.6881 49.6951 45.5404 48.1042 46.6578 46.892C47.7753 45.6799 49.12 44.5814 50.6919 43.5966C51.8662 42.839 52.9173 42.053 53.8453 41.2386C54.7734 40.4242 55.512 39.5246 56.0612 38.5398C56.6105 37.536 56.8851 36.4186 56.8851 35.1875C56.8851 33.8807 56.5726 32.7348 55.9476 31.75C55.3226 30.7652 54.4798 30.0076 53.4192 29.4773C52.3775 28.947 51.2222 28.6818 49.9533 28.6818C48.7222 28.6818 47.5575 28.9564 46.459 29.5057C45.3605 30.036 44.4609 30.8314 43.7601 31.892C43.0593 32.9337 42.6806 34.2311 42.6237 35.7841H31.0328C31.1275 31.9962 32.0366 28.8712 33.7601 26.4091C35.4836 23.928 37.7658 22.0814 40.6067 20.8693C43.4476 19.6383 46.5821 19.0227 50.0101 19.0227C53.779 19.0227 57.1124 19.6477 60.0101 20.8977C62.9078 22.1288 65.1806 23.9186 66.8283 26.267C68.476 28.6155 69.2999 31.447 69.2999 34.7614C69.2999 36.9773 68.9306 38.947 68.1919 40.6705C67.4722 42.375 66.459 43.8902 65.1521 45.2159C63.8453 46.5227 62.3018 47.7064 60.5215 48.767C59.0253 49.6572 57.7942 50.5852 56.8283 51.5511C55.8813 52.517 55.1711 53.6345 54.6976 54.9034C54.2431 56.1723 54.0063 57.7348 53.9874 59.5909V60.5568H43.2203ZM48.8453 78.7386C46.9514 78.7386 45.3321 78.0758 43.9874 76.75C42.6616 75.4053 42.0082 73.7955 42.0271 71.9205C42.0082 70.0644 42.6616 68.4735 43.9874 67.1477C45.3321 65.822 46.9514 65.1591 48.8453 65.1591C50.6446 65.1591 52.226 65.822 53.5896 67.1477C54.9533 68.4735 55.6446 70.0644 55.6635 71.9205C55.6446 73.1705 55.3131 74.3163 54.6692 75.358C54.0442 76.3807 53.2203 77.2045 52.1976 77.8295C51.1749 78.4356 50.0574 78.7386 48.8453 78.7386Z" fill="black"/>
</svg>
