<svg width="100" height="100" viewBox="0 0 100 100" fill="none" xmlns="http://www.w3.org/2000/svg">
<g clip-path="url(#clip0_18_4)">
<path fill-rule="evenodd" clip-rule="evenodd" d="M83.9162 40.0973L96.2509 42.1133C97.2614 42.2784 98.0019 43.1507 98 44.1734V55.6512C98 56.6637 97.2736 57.5315 96.2739 57.7069L83.9226 59.8752C83.2064 62.3507 82.2234 64.7341 80.9856 66.9875L88.2867 77.1245C88.8858 77.9546 88.7917 79.0963 88.0691 79.8208L79.9546 87.9411C79.2365 88.6566 78.1094 88.759 77.2787 88.1728L67.0413 80.9914C64.7834 82.2477 62.3853 83.2493 59.8829 83.9859L57.7018 96.2784C57.5264 97.2736 56.6598 98 55.648 98H44.1683C43.1482 98 42.2778 97.2634 42.1126 96.2592L40.0755 84.0275C37.5776 83.3056 35.1667 82.3104 32.8854 81.056L22.7211 88.1747C21.8925 88.7571 20.7634 88.6566 20.0475 87.9411L11.9327 79.8208C11.2126 79.0963 11.1187 77.959 11.7114 77.1302L18.8933 67.0861C17.6264 64.7942 16.6204 62.3757 15.892 59.865L3.72192 57.7069C2.72634 57.5296 2 56.6637 2 55.6512V44.1734C2 43.1546 2.73882 42.2822 3.74483 42.1152L15.9149 40.089C16.6476 37.5725 17.6535 35.1534 18.9162 32.8682L11.8221 22.7193C11.2397 21.8908 11.34 20.7638 12.0558 20.048L20.1685 11.936C20.8928 11.216 22.0261 11.12 22.8589 11.7148L32.9397 18.9148C35.2043 17.6751 37.609 16.688 40.1133 15.968L42.1088 3.75098C42.2733 2.74086 43.1456 2 44.1683 2H55.648C56.6624 2 57.5283 2.73043 57.7037 3.728L59.8554 16.0118C62.3456 16.736 64.7456 17.7336 67.0182 18.9899L77.1264 11.7252C77.9571 11.1263 79.097 11.2202 79.8208 11.9423L87.9379 20.0543C88.6541 20.7722 88.7539 21.9012 88.1715 22.7297L80.9709 32.9913C82.2067 35.2431 83.1936 37.6224 83.9162 40.0973ZM35.3904 50C35.3904 58.0685 41.9315 64.6086 50.0006 64.6086C58.0691 64.6086 64.6106 58.0685 64.6106 50C64.6106 41.9322 58.0691 35.3915 50.0006 35.3915C41.9315 35.3915 35.3904 41.9322 35.3904 50Z" stroke="black" stroke-width="4"/>
</g>
<defs>
<clipPath id="clip0_18_4">
<rect width="100" height="100" fill="white"/>
</clipPath>
</defs>
</svg>
