<svg width="100" height="100" viewBox="0 0 100 100" fill="none" xmlns="http://www.w3.org/2000/svg">
<path d="M80.8529 51.0838H75.5029C76.016 46.7262 75.5941 42.3093 74.2653 38.1277C72.9365 33.946 70.7314 30.0958 67.7971 26.8336C64.8628 23.5715 61.2667 20.9724 57.2486 19.2099C53.2305 17.4473 48.8828 16.5616 44.4954 16.612C40.108 16.6624 35.7817 17.6477 31.8052 19.5021C27.8286 21.3565 24.2931 24.0374 21.4345 27.3661C18.5759 30.6947 16.4598 34.5947 15.2274 38.8057C13.995 43.0168 13.6747 47.4422 14.2876 51.7869C10.3363 52.9546 6.93752 55.506 4.71324 58.9743C2.48896 62.4426 1.58792 66.5959 2.17499 70.6742C2.76205 74.7524 4.79797 78.4829 7.9102 81.183C11.0224 83.8831 15.0029 85.3723 19.1231 85.3781H80.8529C85.4006 85.3781 89.762 83.5716 92.9777 80.3558C96.1934 77.1401 98 72.7787 98 68.231C98 63.6833 96.1934 59.3218 92.9777 56.1061C89.762 52.8904 85.4006 51.0838 80.8529 51.0838Z" stroke="black" stroke-width="4" stroke-linecap="round" stroke-linejoin="round"/>
<path d="M31.25 43.75C32.9759 43.75 34.375 42.3509 34.375 40.625C34.375 38.8991 32.9759 37.5 31.25 37.5C29.5241 37.5 28.125 38.8991 28.125 40.625C28.125 42.3509 29.5241 43.75 31.25 43.75Z" fill="black"/>
<path d="M56.25 43.75C57.9759 43.75 59.375 42.3509 59.375 40.625C59.375 38.8991 57.9759 37.5 56.25 37.5C54.5241 37.5 53.125 38.8991 53.125 40.625C53.125 42.3509 54.5241 43.75 56.25 43.75Z" fill="black"/>
<path d="M57.8125 60.9375C49.6988 56.542 40.3781 54.8971 31.25 56.25" stroke="black" stroke-width="4" stroke-linecap="round" stroke-linejoin="round"/>
</svg>
