<svg width="100" height="100" viewBox="0 0 100 100" fill="none" xmlns="http://www.w3.org/2000/svg">
<g clip-path="url(#clip0_1_10)">
<path d="M83.7519 51.8343H2.05225C0.918571 51.8343 -3.05176e-05 50.9155 -3.05176e-05 49.782C-3.05176e-05 48.6486 0.918571 47.7298 2.05225 47.7298H83.3551C83.4835 47.7046 83.6162 47.6915 83.7519 47.6915C90.4478 47.6915 95.8954 42.2439 95.8954 35.548C95.8954 28.8521 90.4478 23.4042 83.7519 23.4042C77.056 23.4042 71.6084 28.8518 71.6084 35.5477C71.6084 36.6811 70.6898 37.6 69.5562 37.6C68.4225 37.6 67.5039 36.6811 67.5039 35.5477C67.5039 26.5885 74.7928 19.2997 83.7519 19.2997C92.7111 19.2997 100 26.5885 100 35.5477C100 44.3654 92.9399 51.5651 84.1758 51.7903C84.039 51.8193 83.8975 51.8343 83.7519 51.8343Z" fill="black"/>
<path d="M41.6703 37.6194H2.05225C0.918571 37.6194 -3.05176e-05 36.7005 -3.05176e-05 35.5671C-3.05176e-05 34.4337 0.918571 33.5148 2.05225 33.5148H41.2735C41.4019 33.4897 41.5346 33.4765 41.6703 33.4765C48.3662 33.4765 53.8138 28.0289 53.8138 21.333C53.8138 14.6371 48.3662 9.18955 41.6703 9.18955C34.9741 9.18955 29.5266 14.6371 29.5266 21.333C29.5266 22.4664 28.6079 23.3853 27.4743 23.3853C26.3406 23.3853 25.422 22.4664 25.422 21.333C25.422 12.3739 32.7111 5.08499 41.6703 5.08499C50.6295 5.08499 57.9184 12.3739 57.9184 21.333C57.9184 30.1507 50.8582 37.3504 42.0942 37.5756C41.9574 37.6041 41.8156 37.6194 41.6703 37.6194Z" fill="black"/>
<path d="M66.8184 94.9155C57.8593 94.9155 50.5701 87.6266 50.5701 78.6675C50.5701 77.5341 51.4887 76.6152 52.6224 76.6152C53.7561 76.6152 54.6747 77.5341 54.6747 78.6675C54.6747 85.3634 60.1222 90.811 66.8184 90.811C73.5143 90.811 78.9619 85.3634 78.9619 78.6675C78.9619 71.9716 73.5143 66.524 66.8184 66.524H2.05225C0.918571 66.524 -3.05176e-05 65.6051 -3.05176e-05 64.4717C-3.05176e-05 63.3383 0.918571 62.4194 2.05225 62.4194H66.8184C75.7776 62.4194 83.0665 69.7083 83.0665 78.6675C83.0665 87.6266 75.7776 94.9155 66.8184 94.9155Z" fill="black"/>
</g>
<defs>
<clipPath id="clip0_1_10">
<rect width="100" height="100" fill="white"/>
</clipPath>
</defs>
</svg>
